<?xml version="1.0" encoding="utf-8"?>
<!-- Generator: Adobe Illustrator 19.0.0, SVG Export Plug-In . SVG Version: 6.00 Build 0)  -->
<svg version="1.0" id="Layer_2" xmlns="http://www.w3.org/2000/svg" xmlns:xlink="http://www.w3.org/1999/xlink" x="0px" y="0px"
	 viewBox="0 0 1080 1704" style="enable-background:new 0 0 1080 1704;" xml:space="preserve">
<g>
	<path d="M540.1,793.5c17.3,0,30.8,5.7,40.7,17c9.9,11.4,14.9,25.2,14.9,41.5c0,16.4-5,30.2-14.9,41.5c-9.9,11.3-23.5,17-40.7,17
		c-17.9,0-31.6-5.8-41.2-17.5c-9.6-11.7-14.4-25.3-14.4-41c0-16.3,4.9-30.1,14.8-41.5C509.1,799.2,522.7,793.5,540.1,793.5z
		 M540.1,814.3c-7.7,0-14.2,3.3-19.5,9.8c-5.3,6.5-8,16.2-8,28.8c0,11.2,2.6,20.1,7.9,26.8c5.3,6.7,11.8,10.1,19.6,10.1
		c7.7,0,14.2-3.3,19.6-9.9c5.4-6.6,8.1-16.1,8.1-28.4c0-11.1-2.6-20.1-7.7-26.9C554.9,817.7,548.2,814.3,540.1,814.3z"/>
</g>
</svg>
