<?xml version="1.0" encoding="utf-8"?>
<!-- Generator: Adobe Illustrator 19.0.0, SVG Export Plug-In . SVG Version: 6.00 Build 0)  -->
<svg version="1.0" id="Layer_2" xmlns="http://www.w3.org/2000/svg" xmlns:xlink="http://www.w3.org/1999/xlink" x="0px" y="0px"
	 viewBox="0 0 1080 1692" style="enable-background:new 0 0 1080 1692;" xml:space="preserve">
<g>
	<path d="M581.6,778.8h22.8v47.5h-22.8c-6.5-17.1-17.7-25.6-33.7-25.6c-13.2,0-23.2,4.5-29.9,13.5c-6.8,9-10.1,19.8-10.1,32.3
		c0,13.1,3.6,23.8,10.7,31.9c7.1,8.1,16.3,12.2,27.3,12.2c9.1,0,17-3.1,23.8-9.2c6.8-6.1,11.4-14.7,13.8-25.6l26.6,12.7
		c-10.1,31.3-32.3,47-66.7,47c-24.3,0-42.5-6.5-54.9-19.6c-12.3-13.1-18.5-29.6-18.5-49.6c0-14.2,3.2-26.7,9.6-37.4
		c6.4-10.7,15-18.7,25.9-24.1c10.8-5.4,22.7-8.1,35.7-8.1c16.1,0,29.6,4.2,40.5,12.6V778.8z"/>
</g>
</svg>
