<?xml version="1.0" encoding="utf-8"?>
<!-- Generator: Adobe Illustrator 19.0.0, SVG Export Plug-In . SVG Version: 6.00 Build 0)  -->
<svg version="1.0" id="Layer_2" xmlns="http://www.w3.org/2000/svg" xmlns:xlink="http://www.w3.org/1999/xlink" x="0px" y="0px"
	 viewBox="0 0 1080 1697.7" style="enable-background:new 0 0 1080 1697.7;" xml:space="preserve">
<g>
	<path d="M477.8,848.8v-22.5h19.8V738h-19.8v-22.5h61.9c13,0,23.5,0.8,31.5,2.4c8,1.6,15.6,5.2,22.8,10.8
		c7.3,5.6,13.1,13.1,17.5,22.5c4.4,9.4,6.6,19.8,6.6,31.3c0,9.3-1.5,18.1-4.6,26.5c-3.1,8.4-6.9,15.2-11.4,20.3
		c-4.5,5.1-10,9.2-16.3,12.3c-6.3,3-12.1,5-17.4,5.9c-5.3,0.9-13.5,1.3-24.6,1.3H477.8z M531.5,826.3h8.2c9.9,0,17.7-1.3,23.5-3.9
		c5.8-2.6,10.4-7.2,14-13.9c3.5-6.6,5.3-15.3,5.3-25.9c0-10.2-1.8-18.8-5.3-25.9c-3.5-7.1-8.3-12-14.4-14.7c-6-2.7-13.7-4-23.1-4
		h-8.2V826.3z"/>
</g>
</svg>
