<?xml version="1.0" encoding="utf-8"?>
<!-- Generator: Adobe Illustrator 19.0.0, SVG Export Plug-In . SVG Version: 6.00 Build 0)  -->
<svg version="1.0" id="Layer_2" xmlns="http://www.w3.org/2000/svg" xmlns:xlink="http://www.w3.org/1999/xlink" x="0px" y="0px"
	 viewBox="0 0 1080 1680.2" style="enable-background:new 0 0 1080 1680.2;" xml:space="preserve">
<g>
	<path d="M545.7,891.6l2,1.1c-0.5,1.7-1.4,3.1-2.8,4c-1.4,1-3,1.4-4.8,1.4c-2.4,0-4.3-0.8-5.7-2.3s-2.1-3.4-2.1-5.7
		c0-2.5,0.7-4.5,2.2-5.9s3.3-2.2,5.6-2.2c2,0,3.8,0.6,5.2,1.7v-1.4h2v5h-2c-0.4-1-1.1-1.8-2.1-2.4c-0.9-0.6-1.9-0.8-3-0.8
		c-1.6,0-2.8,0.6-3.8,1.7c-1,1.1-1.5,2.5-1.5,4.3c0,1.8,0.5,3.2,1.6,4.3s2.3,1.7,3.8,1.7c1.2,0,2.3-0.4,3.3-1.2
		C544.6,894.1,545.3,893,545.7,891.6z"/>
</g>
</svg>
