<?xml version="1.0" encoding="utf-8"?>
<!-- Generator: Adobe Illustrator 19.0.0, SVG Export Plug-In . SVG Version: 6.00 Build 0)  -->
<svg version="1.0" xmlns="http://www.w3.org/2000/svg" xmlns:xlink="http://www.w3.org/1999/xlink" x="0px" y="0px"
	 viewBox="0 0 1080 1713.2" style="enable-background:new 0 0 1080 1713.2;" xml:space="preserve">
<g id="Layer_1">
</g>
<g id="Layer_2">
	<g>
		<path d="M511.5,927.7c3.6,0,6.5,1.1,8.6,3.2c2.1,2.1,3.1,4.7,3.1,7.7c0,3-1,5.6-3.1,7.7s-5,3.2-8.6,3.2c-3.8,0-6.7-1.1-8.7-3.2
			c-2-2.2-3-4.7-3-7.6c0-3,1-5.6,3.1-7.7C504.9,928.8,507.8,927.7,511.5,927.7z M511.5,931.6c-1.6,0-3,0.6-4.1,1.8
			c-1.1,1.2-1.7,3-1.7,5.3c0,2.1,0.6,3.7,1.7,5c1.1,1.2,2.5,1.9,4.1,1.9c1.6,0,3-0.6,4.1-1.8c1.1-1.2,1.7-3,1.7-5.3
			c0-2.1-0.5-3.7-1.6-5C514.6,932.2,513.2,931.6,511.5,931.6z"/>
	</g>
</g>
</svg>
