<?xml version="1.0" encoding="utf-8"?>
<!-- Generator: Adobe Illustrator 19.0.0, SVG Export Plug-In . SVG Version: 6.00 Build 0)  -->
<svg version="1.0" id="Layer_2" xmlns="http://www.w3.org/2000/svg" xmlns:xlink="http://www.w3.org/1999/xlink" x="0px" y="0px"
	 viewBox="0 0 1080 1643.7" style="enable-background:new 0 0 1080 1643.7;" xml:space="preserve">
<g>
	<path d="M522.9,837.8v-5.4h4.8v-21.1h-4.8v-5.4H538c3.2,0,5.7,0.2,7.7,0.6c1.9,0.4,3.8,1.3,5.6,2.6c1.8,1.3,3.2,3.1,4.3,5.4
		c1.1,2.2,1.6,4.7,1.6,7.5c0,2.2-0.4,4.3-1.1,6.3c-0.7,2-1.7,3.6-2.8,4.9s-2.4,2.2-4,2.9c-1.5,0.7-3,1.2-4.2,1.4
		c-1.3,0.2-3.3,0.3-6,0.3H522.9z M536,832.4h2c2.4,0,4.3-0.3,5.7-0.9c1.4-0.6,2.5-1.7,3.4-3.3c0.9-1.6,1.3-3.6,1.3-6.2
		c0-2.4-0.4-4.5-1.3-6.2s-2-2.9-3.5-3.5c-1.5-0.6-3.3-1-5.6-1h-2V832.4z"/>
</g>
</svg>
