<?xml version="1.0" encoding="utf-8"?>
<!-- Generator: Adobe Illustrator 19.0.0, SVG Export Plug-In . SVG Version: 6.00 Build 0)  -->
<svg version="1.0" id="Layer_2" xmlns="http://www.w3.org/2000/svg" xmlns:xlink="http://www.w3.org/1999/xlink" x="0px" y="0px"
	 viewBox="0 0 1080 1696" style="enable-background:new 0 0 1080 1696;" xml:space="preserve">
<g>
	<path d="M532.8,893.8h5.7v12h-5.7c-1.6-4.3-4.5-6.5-8.5-6.5c-3.3,0-5.8,1.1-7.5,3.4c-1.7,2.3-2.6,5-2.6,8.1c0,3.3,0.9,6,2.7,8
		s4.1,3.1,6.9,3.1c2.3,0,4.3-0.8,6-2.3c1.7-1.5,2.9-3.7,3.5-6.5l6.7,3.2c-2.5,7.9-8.1,11.8-16.8,11.8c-6.1,0-10.7-1.6-13.8-4.9
		c-3.1-3.3-4.7-7.5-4.7-12.5c0-3.6,0.8-6.7,2.4-9.4c1.6-2.7,3.8-4.7,6.5-6.1s5.7-2,9-2c4.1,0,7.5,1.1,10.2,3.2V893.8z"/>
</g>
</svg>
