<?xml version="1.0" encoding="utf-8"?>
<!-- Generator: Adobe Illustrator 19.0.0, SVG Export Plug-In . SVG Version: 6.00 Build 0)  -->
<svg version="1.0" id="Layer_2" xmlns="http://www.w3.org/2000/svg" xmlns:xlink="http://www.w3.org/1999/xlink" x="0px" y="0px"
	 viewBox="0 0 1080 1716" style="enable-background:new 0 0 1080 1716;" xml:space="preserve">
<g>
	<path d="M556.7,835.2h7.7v16.1h-7.7c-2.2-5.8-6-8.7-11.4-8.7c-4.5,0-7.9,1.5-10.2,4.6c-2.3,3-3.4,6.7-3.4,11
		c0,4.5,1.2,8.1,3.6,10.8c2.4,2.8,5.5,4.1,9.3,4.1c3.1,0,5.8-1,8.1-3.1c2.3-2.1,3.9-5,4.7-8.7l9,4.3c-3.4,10.6-11,15.9-22.6,15.9
		c-8.2,0-14.4-2.2-18.6-6.6c-4.2-4.4-6.3-10-6.3-16.8c0-4.8,1.1-9.1,3.3-12.7c2.2-3.6,5.1-6.3,8.8-8.2c3.7-1.8,7.7-2.7,12.1-2.7
		c5.5,0,10,1.4,13.7,4.3V835.2z"/>
</g>
</svg>
