<?xml version="1.0" encoding="utf-8"?>
<!-- Generator: Adobe Illustrator 19.0.0, SVG Export Plug-In . SVG Version: 6.00 Build 0)  -->
<svg version="1.0" id="Layer_2" xmlns="http://www.w3.org/2000/svg" xmlns:xlink="http://www.w3.org/1999/xlink" x="0px" y="0px"
	 viewBox="0 0 1080 1716.2" style="enable-background:new 0 0 1080 1716.2;" xml:space="preserve">
<g>
	<path d="M543.6,865.6v7.6h-26.8v-7.6h6.5v-29.8h-6.5v-7.6h26.8c6.2,0,11.1,1.3,14.5,3.9c3.4,2.6,5.1,6.1,5.1,10.4
		c0,2.5-0.6,4.8-1.8,6.8c-1.2,2-2.7,3.6-4.6,4.7c-1.9,1.1-4,1.8-6.4,2.2c-2.4,0.4-5.4,0.6-9,0.6h-4.9v8.7H543.6z M536.5,849.4h2
		c4.5,0,7.4-0.7,8.8-2c1.3-1.3,2-2.9,2-4.9c0-1.6-0.5-3-1.4-4.2c-0.9-1.2-1.9-1.9-3.1-2.1c-1.2-0.3-3.1-0.4-5.7-0.4h-2.5V849.4z"/>
</g>
</svg>
