<?xml version="1.0" encoding="utf-8"?>
<!-- Generator: Adobe Illustrator 19.0.0, SVG Export Plug-In . SVG Version: 6.00 Build 0)  -->
<svg version="1.0" id="Layer_2" xmlns="http://www.w3.org/2000/svg" xmlns:xlink="http://www.w3.org/1999/xlink" x="0px" y="0px"
	 viewBox="0 0 1080 1704" style="enable-background:new 0 0 1080 1704;" xml:space="preserve">
<g>
	<path d="M556.6,824.8h9.1V844h-9.1c-2.6-6.9-7.1-10.4-13.5-10.4c-5.3,0-9.3,1.8-12,5.5c-2.7,3.6-4.1,8-4.1,13.1
		c0,5.3,1.4,9.6,4.3,12.9c2.9,3.3,6.5,4.9,10.9,4.9c3.6,0,6.8-1.2,9.5-3.7c2.7-2.5,4.6-5.9,5.5-10.4l10.6,5.1
		c-4,12.7-12.9,19-26.7,19c-9.7,0-17-2.6-21.9-7.9c-4.9-5.3-7.4-12-7.4-20.1c0-5.8,1.3-10.8,3.8-15.1c2.6-4.3,6-7.6,10.3-9.8
		c4.3-2.2,9.1-3.3,14.3-3.3c6.4,0,11.8,1.7,16.2,5.1V824.8z"/>
</g>
</svg>
