<?xml version="1.0" encoding="utf-8"?>
<!-- Generator: Adobe Illustrator 19.0.0, SVG Export Plug-In . SVG Version: 6.00 Build 0)  -->
<svg version="1.0" id="Layer_2" xmlns="http://www.w3.org/2000/svg" xmlns:xlink="http://www.w3.org/1999/xlink" x="0px" y="0px"
	 viewBox="0 0 1080 1700" style="enable-background:new 0 0 1080 1700;" xml:space="preserve">
<g>
	<path d="M540,822.6c8.9,0,15.8,2.7,20.9,8c5.1,5.3,7.6,11.8,7.6,19.5c0,7.7-2.6,14.2-7.7,19.5c-5.1,5.3-12.1,8-20.9,8
		c-9.2,0-16.2-2.7-21.2-8.2c-4.9-5.5-7.4-11.9-7.4-19.3c0-7.6,2.5-14.1,7.6-19.5C524.1,825.2,531.1,822.6,540,822.6z M540,832.3
		c-3.9,0-7.3,1.5-10,4.6c-2.7,3.1-4.1,7.6-4.1,13.5c0,5.2,1.4,9.4,4.1,12.6c2.7,3.1,6.1,4.7,10.1,4.7c3.9,0,7.3-1.5,10.1-4.6
		c2.8-3.1,4.1-7.5,4.1-13.3c0-5.2-1.3-9.4-4-12.6C547.6,833.9,544.2,832.3,540,832.3z"/>
</g>
</svg>
