<?xml version="1.0" encoding="utf-8"?>
<!-- Generator: Adobe Illustrator 19.0.0, SVG Export Plug-In . SVG Version: 6.00 Build 0)  -->
<svg version="1.1" id="Layer_1" xmlns="http://www.w3.org/2000/svg" xmlns:xlink="http://www.w3.org/1999/xlink" x="0px" y="0px"
	 viewBox="0 0 1536 2048" style="enable-background:new 0 0 1536 2048;" xml:space="preserve">

<g id="XMLID_2_">
	<path id="XMLID_4_" fill="#858585" d="M729.1,1051.7c-15.1,0-26.9-7.5-27.4-21.7h18.2c0.5,5.4,3.9,8,8.7,8c5,0,8.2-2.5,8.2-6.6
		c0-13-35.1-6-34.9-30.9c0-13.3,10.9-20.7,25.6-20.7c15.3,0,25.6,7.6,26.3,21h-18.5c-0.3-4.5-3.5-7.2-8.1-7.3
		c-4.1-0.1-7.2,2-7.2,6.4c0,12.2,34.7,6.7,34.7,30.2C754.7,1041.9,745.5,1051.7,729.1,1051.7z"/>
</g>
</svg>
