<?xml version="1.0" encoding="utf-8"?>
<!-- Generator: Adobe Illustrator 19.0.0, SVG Export Plug-In . SVG Version: 6.00 Build 0)  -->
<svg version="1.0" xmlns="http://www.w3.org/2000/svg" xmlns:xlink="http://www.w3.org/1999/xlink" x="0px" y="0px"
	 viewBox="0 0 1080 1692" style="enable-background:new 0 0 1080 1692;" xml:space="preserve">
<g id="Layer_1">
</g>
<g id="Layer_2">
	<g>
		<path d="M546,836.3h3.3v6.9H546c-0.9-2.5-2.6-3.7-4.9-3.7c-1.9,0-3.4,0.7-4.3,2c-1,1.3-1.5,2.9-1.5,4.7c0,1.9,0.5,3.4,1.6,4.6
			c1,1.2,2.4,1.8,4,1.8c1.3,0,2.5-0.4,3.4-1.3c1-0.9,1.6-2.1,2-3.7l3.8,1.8c-1.5,4.5-4.7,6.8-9.6,6.8c-3.5,0-6.2-0.9-7.9-2.8
			c-1.8-1.9-2.7-4.3-2.7-7.2c0-2.1,0.5-3.9,1.4-5.4c0.9-1.5,2.2-2.7,3.7-3.5c1.6-0.8,3.3-1.2,5.2-1.2c2.3,0,4.3,0.6,5.9,1.8V836.3z"
			/>
	</g>
</g>
</svg>
