<?xml version="1.0" encoding="iso-8859-1"?>
<!-- Generator: Adobe Illustrator 19.0.0, SVG Export Plug-In . SVG Version: 6.00 Build 0)  -->
<svg version="1.1" id="Layer_1" xmlns="http://www.w3.org/2000/svg" xmlns:xlink="http://www.w3.org/1999/xlink" x="0px" y="0px"
	 viewBox="0 0 280.028 280.028" style="enable-background:new 0 0 280.028 280.028;" xml:space="preserve">
<g>
	<path style="fill:#E4E7E7;" d="M140.014,43.759c77.323,0,140.014,43.098,140.014,96.259s-62.691,96.251-140.014,96.251
		S0,193.188,0,140.027S62.691,43.759,140.014,43.759z"/>
	<path style="fill:#3DB39E;" d="M140.014,70.011c38.661,0,70.007,31.346,70.007,70.007s-31.346,69.998-70.007,69.998
		s-70.007-31.337-70.007-69.998S101.352,70.011,140.014,70.011z"/>
	<path style="fill:#324D5B;" d="M140.014,96.264c24.17,0,43.754,19.593,43.754,43.754c0,24.17-19.584,43.746-43.754,43.746
		S96.26,164.188,96.26,140.018C96.259,115.857,115.844,96.264,140.014,96.264z"/>
	<path style="fill:#C9EAE4;" d="M166.266,96.264c9.661,0,17.502,7.841,17.502,17.502s-7.841,17.493-17.502,17.493
		s-17.502-7.832-17.502-17.493S156.605,96.264,166.266,96.264z"/>
	<path style="fill:#D6DBDE;" d="M180.591,123.794c-4.454-11.096-13.266-19.899-24.336-24.345c-4.524,3.168-7.491,8.392-7.491,14.325
		c0,9.661,7.841,17.493,17.502,17.493C172.199,131.267,177.406,128.301,180.591,123.794z"/>
</g>
<g>
</g>
<g>
</g>
<g>
</g>
<g>
</g>
<g>
</g>
<g>
</g>
<g>
</g>
<g>
</g>
<g>
</g>
<g>
</g>
<g>
</g>
<g>
</g>
<g>
</g>
<g>
</g>
<g>
</g>
</svg>
