<?xml version="1.0" encoding="iso-8859-1"?>
<!-- Generator: Adobe Illustrator 19.0.0, SVG Export Plug-In . SVG Version: 6.00 Build 0)  -->
<svg version="1.1" id="Layer_1" xmlns="http://www.w3.org/2000/svg" xmlns:xlink="http://www.w3.org/1999/xlink" x="0px" y="0px"
	 viewBox="0 0 295.41 295.41" style="enable-background:new 0 0 295.41 295.41;" xml:space="preserve">
<g>
	<circle style="fill:#FFDB77;" cx="147.705" cy="147.705" r="140.205"/>
	<g>
		<path style="fill:#22313F;" d="M147.705,0C66.26,0,0,66.26,0,147.705S66.26,295.41,147.705,295.41S295.41,229.15,295.41,147.705
			S229.15,0,147.705,0z M147.705,280.41C74.531,280.41,15,220.879,15,147.705S74.531,15,147.705,15S280.41,74.531,280.41,147.705
			S220.879,280.41,147.705,280.41z"/>
		<path style="fill:#22313F;" d="M176.539,111.564c14.887,0,26.999-12.111,26.999-26.999s-12.112-26.999-26.999-26.999
			S149.54,69.677,149.54,84.565C149.54,99.453,161.651,111.564,176.539,111.564z M176.539,72.566
			c6.616,0,11.999,5.383,11.999,11.999s-5.383,11.999-11.999,11.999s-11.999-5.383-11.999-11.999
			C164.54,77.949,169.922,72.566,176.539,72.566z"/>
		<path style="fill:#22313F;" d="M89.889,144.748c-18.874,0-34.229,15.355-34.229,34.229s15.355,34.229,34.229,34.229
			s34.229-15.354,34.229-34.229S108.763,144.748,89.889,144.748z M89.889,198.205c-10.603,0-19.229-8.626-19.229-19.229
			s8.626-19.229,19.229-19.229s19.229,8.626,19.229,19.229C109.118,189.579,100.492,198.205,89.889,198.205z"/>
		<path style="fill:#22313F;" d="M165.705,147.705c0,4.143,3.358,7.5,7.5,7.5h32c4.142,0,7.5-3.357,7.5-7.5s-3.358-7.5-7.5-7.5h-32
			C169.063,140.205,165.705,143.563,165.705,147.705z"/>
		<path style="fill:#22313F;" d="M215.422,201.509c-3.052-4.521-9.922-4.405-12.718,0.457l-5.508,9.579l-6.774-10.036
			c-3.052-4.521-9.921-4.405-12.718,0.457l-5.508,9.579l-6.774-10.036c-3.051-4.52-9.921-4.407-12.718,0.457l-11.501,20
			c-2.065,3.591-0.828,8.176,2.763,10.241c3.581,2.06,8.171,0.835,10.24-2.763l5.508-9.579l6.774,10.036
			c3.06,4.534,9.927,4.396,12.718-0.457l5.508-9.579l6.774,10.036c3.065,4.541,9.931,4.389,12.718-0.457l5.508-9.579l6.774,10.036
			c2.316,3.433,6.977,4.337,10.412,2.021c3.433-2.317,4.338-6.98,2.021-10.413L215.422,201.509z"/>
		<path style="fill:#22313F;" d="M77.142,103.099c3.685,1.875,8.204,0.408,10.083-3.29L99.26,76.115
			c1.875-3.693,0.402-8.208-3.291-10.083c-3.692-1.878-8.207-0.403-10.083,3.29L73.852,93.016
			C71.976,96.709,73.449,101.224,77.142,103.099z"/>
	</g>
</g>
<g>
</g>
<g>
</g>
<g>
</g>
<g>
</g>
<g>
</g>
<g>
</g>
<g>
</g>
<g>
</g>
<g>
</g>
<g>
</g>
<g>
</g>
<g>
</g>
<g>
</g>
<g>
</g>
<g>
</g>
</svg>
