<?xml version="1.0" encoding="utf-8"?>
<!-- Generator: Adobe Illustrator 19.0.0, SVG Export Plug-In . SVG Version: 6.00 Build 0)  -->
<svg version="1.0" id="Layer_2" xmlns="http://www.w3.org/2000/svg" xmlns:xlink="http://www.w3.org/1999/xlink" x="0px" y="0px"
	 viewBox="0 0 1080 1664" style="enable-background:new 0 0 1080 1664;" xml:space="preserve">
<g>
	<path d="M548.5,818.2h4.7v9.8h-4.7c-1.3-3.5-3.6-5.3-6.9-5.3c-2.7,0-4.8,0.9-6.1,2.8c-1.4,1.8-2.1,4.1-2.1,6.6
		c0,2.7,0.7,4.9,2.2,6.5c1.5,1.7,3.3,2.5,5.6,2.5c1.9,0,3.5-0.6,4.9-1.9c1.4-1.3,2.3-3,2.8-5.3l5.5,2.6c-2.1,6.4-6.6,9.7-13.7,9.7
		c-5,0-8.7-1.3-11.3-4c-2.5-2.7-3.8-6.1-3.8-10.2c0-2.9,0.7-5.5,2-7.7c1.3-2.2,3.1-3.8,5.3-5c2.2-1.1,4.7-1.7,7.3-1.7
		c3.3,0,6.1,0.9,8.3,2.6V818.2z"/>
</g>
</svg>
