<?xml version="1.0" encoding="utf-8"?>
<!-- Generator: Adobe Illustrator 19.0.0, SVG Export Plug-In . SVG Version: 6.00 Build 0)  -->
<svg version="1.0" id="Layer_2" xmlns="http://www.w3.org/2000/svg" xmlns:xlink="http://www.w3.org/1999/xlink" x="0px" y="0px"
	 viewBox="0 0 1080 1686.2" style="enable-background:new 0 0 1080 1686.2;" xml:space="preserve">
<g>
	<path d="M526.1,856.1v-4.4h3.9v-17.2h-3.9v-4.4h12.3c2.6,0,4.7,0.2,6.3,0.5s3.1,1,4.5,2.1c1.4,1.1,2.6,2.6,3.5,4.4
		c0.9,1.8,1.3,3.9,1.3,6.1c0,1.8-0.3,3.5-0.9,5.2c-0.6,1.6-1.4,3-2.3,4c-0.9,1-2,1.8-3.2,2.4s-2.4,1-3.5,1.1
		c-1.1,0.2-2.7,0.3-4.9,0.3H526.1z M536.7,851.7h1.6c2,0,3.5-0.3,4.7-0.8c1.2-0.5,2.1-1.4,2.8-2.7c0.7-1.3,1-3,1-5.1
		c0-2-0.4-3.7-1.1-5c-0.7-1.4-1.7-2.3-2.9-2.9c-1.2-0.5-2.7-0.8-4.6-0.8h-1.6V851.7z"/>
</g>
</svg>
