<?xml version="1.0" encoding="utf-8"?>
<!-- Generator: Adobe Illustrator 19.0.0, SVG Export Plug-In . SVG Version: 6.00 Build 0)  -->
<svg version="1.0" id="Layer_2" xmlns="http://www.w3.org/2000/svg" xmlns:xlink="http://www.w3.org/1999/xlink" x="0px" y="0px"
	 viewBox="0 0 1080 1688" style="enable-background:new 0 0 1080 1688;" xml:space="preserve">
<g>
	<path d="M541.9,852.8v4.5h-14.1v-4.5h3.4v-17.7h-3.4v-4.5h14.1c3.3,0,5.8,0.8,7.6,2.3c1.8,1.5,2.7,3.6,2.7,6.2c0,1.5-0.3,2.8-0.9,4
		c-0.6,1.2-1.4,2.1-2.4,2.8s-2.1,1.1-3.4,1.3c-1.3,0.2-2.8,0.4-4.7,0.4h-2.5v5.2H541.9z M538.2,843.2h1c2.4,0,3.9-0.4,4.6-1.2
		c0.7-0.8,1-1.7,1-2.9c0-1-0.2-1.8-0.7-2.5c-0.5-0.7-1-1.1-1.6-1.3c-0.6-0.2-1.6-0.2-3-0.2h-1.3V843.2z"/>
</g>
</svg>
