<?xml version="1.0" encoding="utf-8"?>
<!-- Generator: Adobe Illustrator 19.0.0, SVG Export Plug-In . SVG Version: 6.00 Build 0)  -->
<svg version="1.0" id="Layer_2" xmlns="http://www.w3.org/2000/svg" xmlns:xlink="http://www.w3.org/1999/xlink" x="0px" y="0px"
	 viewBox="0 0 1080 1667.7" style="enable-background:new 0 0 1080 1667.7;" xml:space="preserve">
<g>
	<path d="M548.6,818.1h4.7v11.1h-4.7c-1.3-4-3.7-6-6.9-6c-2.7,0-4.8,1.1-6.2,3.2c-1.4,2.1-2.1,4.6-2.1,7.6c0,3.1,0.7,5.6,2.2,7.5
		c1.5,1.9,3.4,2.9,5.6,2.9c1.9,0,3.5-0.7,4.9-2.2c1.4-1.4,2.3-3.4,2.8-6l5.5,3c-2.1,7.3-6.7,11-13.8,11c-5,0-8.8-1.5-11.3-4.6
		c-2.5-3.1-3.8-6.9-3.8-11.6c0-3.3,0.7-6.2,2-8.7c1.3-2.5,3.1-4.4,5.3-5.6c2.2-1.3,4.7-1.9,7.4-1.9c3.3,0,6.1,1,8.3,3V818.1z"/>
</g>
</svg>
