<?xml version="1.0" encoding="utf-8"?>
<!-- Generator: Adobe Illustrator 19.0.0, SVG Export Plug-In . SVG Version: 6.00 Build 0)  -->
<svg version="1.0" id="Layer_2" xmlns="http://www.w3.org/2000/svg" xmlns:xlink="http://www.w3.org/1999/xlink" x="0px" y="0px"
	 viewBox="0 0 1080 1692" style="enable-background:new 0 0 1080 1692;" xml:space="preserve">
<g>
	<path d="M574.3,790h18.6v39.6h-18.6c-5.3-14.2-14.4-21.3-27.5-21.3c-10.8,0-18.9,3.7-24.4,11.2c-5.5,7.5-8.3,16.4-8.3,26.9
		c0,10.9,2.9,19.8,8.7,26.5c5.8,6.8,13.3,10.1,22.3,10.1c7.4,0,13.9-2.6,19.4-7.7c5.5-5.1,9.3-12.2,11.2-21.3l21.7,10.5
		c-8.2,26.1-26.4,39.1-54.4,39.1c-19.8,0-34.7-5.4-44.8-16.3c-10.1-10.9-15.1-24.6-15.1-41.3c0-11.8,2.6-22.2,7.8-31.1
		c5.2-8.9,12.3-15.6,21.1-20.1c8.8-4.5,18.5-6.7,29.1-6.7c13.1,0,24.1,3.5,33,10.5V790z"/>
</g>
</svg>
