<?xml version="1.0" encoding="UTF-8"?>
<svg xmlns="http://www.w3.org/2000/svg" xmlns:xlink="http://www.w3.org/1999/xlink" width="480pt" height="480pt" viewBox="0 0 480 480" version="1.1">
<g id="surface10973766">
<path style=" stroke:none;fill-rule:nonzero;fill:rgb(27.058824%,45.098039%,41.568627%);fill-opacity:1;" d="M 240.0625 48 C 134 48 48 133.96875 48 240 C 48 346.03125 134 432 240.0625 432 C 400.222656 432 436.304688 283.3125 421.28125 208 L 240 208 L 240 272 L 363.8125 272 C 349.578125 327.171875 299.617188 368 240 368 C 169.3125 368 112 310.6875 112 240 C 112 169.3125 169.3125 112 240 112 C 272.144531 112 301.425781 123.933594 323.90625 143.5 L 369.375 98.0625 C 335.230469 66.957031 289.871094 48 240.0625 48 Z M 240.0625 48 "/>
</g>
</svg>
