<?xml version="1.0" encoding="utf-8"?>
<!-- Generator: Adobe Illustrator 19.0.0, SVG Export Plug-In . SVG Version: 6.00 Build 0)  -->
<svg version="1.0" id="Layer_2" xmlns="http://www.w3.org/2000/svg" xmlns:xlink="http://www.w3.org/1999/xlink" x="0px" y="0px"
	 viewBox="0 0 1080 1700" style="enable-background:new 0 0 1080 1700;" xml:space="preserve">
<g>
	<path d="M548,921.5v5.8h-20.8v-5.8h5v-22.7h-5V893H548c4.8,0,8.6,1,11.2,3s4,4.6,4,8c0,1.9-0.5,3.6-1.4,5.2
		c-0.9,1.6-2.1,2.8-3.6,3.6c-1.4,0.8-3.1,1.4-5,1.7c-1.9,0.3-4.2,0.5-7,0.5h-3.8v6.7H548z M542.5,909.1h1.5c3.5,0,5.8-0.5,6.8-1.5
		c1-1,1.5-2.2,1.5-3.7c0-1.3-0.4-2.3-1.1-3.2c-0.7-0.9-1.5-1.4-2.4-1.6c-0.9-0.2-2.4-0.3-4.5-0.3h-1.9V909.1z"/>
</g>
</svg>
