<?xml version="1.0" encoding="utf-8"?>
<!-- Generator: Adobe Illustrator 19.0.0, SVG Export Plug-In . SVG Version: 6.00 Build 0)  -->
<svg version="1.0" id="Layer_2" xmlns="http://www.w3.org/2000/svg" xmlns:xlink="http://www.w3.org/1999/xlink" x="0px" y="0px"
	 viewBox="0 0 1080 1672" style="enable-background:new 0 0 1080 1672;" xml:space="preserve">
<g>
	<path d="M559.5,824.4V836h-41.3v-11.6h10v-45.5h-10v-11.6h41.3c9.6,0,17.1,2,22.3,5.9s7.9,9.3,7.9,16c0,3.8-0.9,7.3-2.8,10.4
		c-1.8,3.1-4.2,5.5-7.1,7.2c-2.9,1.7-6.2,2.8-9.9,3.4c-3.7,0.6-8.3,0.9-13.9,0.9h-7.5v13.3H559.5z M548.6,799.6h3c7,0,11.5-1,13.5-3
		c2-2,3-4.5,3-7.4c0-2.5-0.7-4.6-2.1-6.4c-1.4-1.8-3-2.8-4.8-3.3c-1.8-0.4-4.8-0.6-8.9-0.6h-3.8V799.6z"/>
</g>
</svg>
