<?xml version="1.0" encoding="utf-8"?>
<!-- Generator: Adobe Illustrator 19.0.0, SVG Export Plug-In . SVG Version: 6.00 Build 0)  -->
<svg version="1.0" id="Layer_2" xmlns="http://www.w3.org/2000/svg" xmlns:xlink="http://www.w3.org/1999/xlink" x="0px" y="0px"
	 viewBox="0 0 1080 1707.2" style="enable-background:new 0 0 1080 1707.2;" xml:space="preserve">
<g>
	<path d="M567.7,809.1h15.2v31.4h-15.2c-4.3-11.3-11.8-16.9-22.4-16.9c-8.8,0-15.4,3-19.9,8.9c-4.5,5.9-6.8,13.1-6.8,21.4
		c0,8.7,2.4,15.7,7.1,21.1c4.8,5.4,10.8,8.1,18.2,8.1c6,0,11.3-2,15.8-6.1c4.5-4.1,7.6-9.7,9.2-16.9l17.7,8.4
		c-6.7,20.7-21.5,31.1-44.4,31.1c-16.2,0-28.3-4.3-36.5-13c-8.2-8.6-12.3-19.6-12.3-32.8c0-9.4,2.1-17.7,6.4-24.7s10-12.4,17.2-15.9
		c7.2-3.6,15.1-5.4,23.7-5.4c10.7,0,19.7,2.8,26.9,8.3V809.1z"/>
</g>
</svg>
