<?xml version="1.0" encoding="utf-8"?>
<!-- Generator: Adobe Illustrator 19.0.0, SVG Export Plug-In . SVG Version: 6.00 Build 0)  -->
<svg version="1.0" id="Layer_2" xmlns="http://www.w3.org/2000/svg" xmlns:xlink="http://www.w3.org/1999/xlink" x="0px" y="0px"
	 viewBox="0 0 1080 1668" style="enable-background:new 0 0 1080 1668;" xml:space="preserve">
<g>
	<path d="M506,842v-14.9h12.6v-58.3H506V754h39.3c8.3,0,14.9,0.5,20,1.6c5,1.1,9.9,3.5,14.5,7.1c4.6,3.7,8.3,8.6,11.1,14.8
		s4.2,13.1,4.2,20.6c0,6.1-1,11.9-2.9,17.5c-1.9,5.5-4.4,10-7.2,13.4c-2.9,3.4-6.3,6.1-10.3,8.1c-4,2-7.7,3.3-11.1,3.9
		c-3.4,0.6-8.6,0.9-15.6,0.9H506z M540.1,827.1h5.2c6.3,0,11.3-0.9,14.9-2.6c3.7-1.7,6.6-4.8,8.9-9.1c2.2-4.4,3.3-10.1,3.3-17.1
		c0-6.7-1.1-12.4-3.4-17.1c-2.2-4.7-5.3-7.9-9.1-9.7c-3.8-1.8-8.7-2.7-14.6-2.7h-5.2V827.1z"/>
</g>
</svg>
